{"title":"Alex Gaudino Ft. Taboo - I Dont Wanna Dance (h264/mp4)","uid":7554706,"size":76154959,"categoryP":"video","categoryS":"music_videos","magnet":"?xt=urn:btih:35963779d9fa7ae109ea3eac33e1bb54321b604c&amp;dn=Alex+Gaudino+Ft.+Taboo+-+I+Dont+Wanna+Dance+%28h264%2Fmp4%29&amp;tr=udp%3A%2F%2Ftracker.openbittorrent.com%3A80&amp;tr=udp%3A%2F%2Fopen.demonii.com%3A1337&amp;tr=udp%3A%2F%2Ftracker.coppersurfer.tk%3A6969&amp;tr=udp%3A%2F%2Fexodus.desync.com%3A6969","seeders":1,"leechers":0,"uploader":"MusicVideos-HQ","files":1,"time":1345576887,"description":"General\n\nFormat                         : MPEG-4\nFormat profile                 : Base Media\nCodec ID                       : isom\nFile size                      : 72.6 MiB\nDuration                       : 3mn 8s\nOverall bit rate mode          : Variable\nOverall bit rate               : 3 226 Kbps\nEncoded date                   : UTC 2012-08-20 04:29:05\nTagged date                    : UTC 2012-08-20 04:29:05\n\nVideo\nID                             : 1\nFormat                         : AVC\nFormat/Info                    : Advanced Video Codec\nFormat profile                 : &lt;a class=&quot;__cf_email__&quot; href=&quot;/cdn-cgi/l/email-protection&quot; data-cfemail=&quot;82caebe5eac2ceb1acb2&quot;&gt;[email&amp;#160;protected]&lt;/a&gt;&lt;script data-cfhash='f9e31' type=&quot;text/javascript&quot;&gt;\n/* &lt;![CDATA[ */!function(){try{var t=&quot;currentScript&quot;in document?document.currentScript:function(){for(var t=document.getElementsByTagName(&quot;script&quot;),e=t.length;e--;)if(t[e].getAttribute(&quot;data-cfhash&quot;))return t[e]}();if(t&amp;&amp;t.previousSibling){var e,r,n,i,c=t.previousSibling,a=c.getAttribute(&quot;data-cfemail&quot;);if(a){for(e=&quot;&quot;,r=parseInt(a.substr(0,2),16),n=2;a.length-n;n+=2)i=parseInt(a.substr(n,2),16)^r,e+=String.fromCharCode(i);e=document.createTextNode(e),c.parentNode.replaceChild(e,c)}t.parentNode.removeChild(t);}}catch(u){}}()/* ]]&gt; */&lt;/script&gt;\nFormat settings, CABAC         : Yes\nFormat settings, ReFrames      : 2 frames\nCodec ID                       : avc1\nCodec ID/Info                  : Advanced Video Coding\nDuration                       : 3mn 8s\nBit rate                       : 3 053 Kbps\nMaximum bit rate               : 15.0 Mbps\nWidth                          : 720 pixels\nHeight                         : 480 pixels\nDisplay aspect ratio           : 16:9\nOriginal display aspect ratio  : 16:9\nFrame rate mode                : Constant\nFrame rate                     : 25.000 fps\nStandard                       : NTSC\nColor space                    : YUV\nChroma subsampling             : 4:2:0\nBit depth                      : 8 bits\nScan type                      : Progressive\nBits/(Pixel*Frame)             : 0.353\nStream size                    : 68.2 MiB (94%)\n\n\nAudio\nID                             : 2\nFormat                         : AAC\nFormat/Info                    : Advanced Audio Codec\nFormat profile                 : LC\nCodec ID                       : 40\nDuration                       : 3mn 8s\nBit rate mode                  : Variable\nBit rate                       : 192 Kbps\nMaximum bit rate               : 243 Kbps\nChannel(s)                     : 2 channels\nChannel positions              : Front: L R\nSampling rate                  : 44.1 KHz\nCompression mode               : Lossy\nDelay relative to video        : -7ms\nStream size                    : 4.29 MiB (6%)","torrent":{"xt":"urn:btih:35963779d9fa7ae109ea3eac33e1bb54321b604c","amp;dn":"Alex+Gaudino+Ft.+Taboo+-+I+Dont+Wanna+Dance+%28h264%2Fmp4%29","amp;tr":["udp%3A%2F%2Ftracker.openbittorrent.com%3A80","udp%3A%2F%2Fopen.demonii.com%3A1337","udp%3A%2F%2Ftracker.coppersurfer.tk%3A6969","udp%3A%2F%2Fexodus.desync.com%3A6969"],"infoHash":"35963779d9fa7ae109ea3eac33e1bb54321b604c","infoHashBuffer":{"type":"Buffer","data":[53,150,55,121,217,250,122,225,9,234,62,172,51,225,187,84,50,27,96,76]},"announce":[],"urlList":[]}}